<?xml version="1.0" standalone="no"?>
<!DOCTYPE svg PUBLIC "-//W3C//DTD SVG 20010904//EN"
 "http://www.w3.org/TR/2001/REC-SVG-20010904/DTD/svg10.dtd">
<svg version="1.0" xmlns="http://www.w3.org/2000/svg"
 width="700.000000pt" height="700.000000pt" viewBox="0 0 700.000000 700.000000"
 preserveAspectRatio="xMidYMid meet">

<g transform="translate(0.000000,700.000000) scale(0.100000,-0.100000)"
fill="#000000" stroke="none">
<path d="M3261 4219 c-496 -135 -764 -651 -586 -1124 102 -272 350 -481 635
-535 74 -14 252 -13 320 1 30 7 67 12 82 13 14 1 24 4 22 7 -2 4 23 16 57 28
79 29 222 126 285 193 128 136 208 299 234 480 11 75 11 279 0 273 -9 -5 -32
53 -27 67 2 7 -3 18 -12 25 -9 6 -12 15 -8 19 4 5 11 4 15 -1 4 -6 14 -11 22
-13 9 -2 5 6 -10 20 -14 14 -28 23 -32 21 -5 -2 -8 1 -8 6 0 6 4 11 10 11 5 0
6 7 3 17 -4 9 -2 14 3 10 6 -3 16 -2 24 4 12 7 10 9 -7 9 -12 0 -26 -8 -32
-17 -7 -14 -9 -12 -8 10 1 15 5 27 9 27 8 0 4 27 -5 36 -4 4 -7 2 -7 -5 0 -7
-5 -9 -10 -6 -6 4 -8 11 -5 16 4 5 2 9 -4 9 -6 0 -15 10 -22 21 -8 15 -8 19 0
15 6 -4 11 0 11 9 0 20 -29 65 -42 65 -5 0 -2 -10 6 -22 18 -26 20 -38 6 -38
-5 0 -10 7 -10 15 0 8 -9 24 -21 36 -13 13 -18 27 -13 41 4 13 2 18 -4 14 -15
-9 -42 4 -42 20 0 8 -7 17 -16 21 -8 3 -13 11 -10 18 3 8 -2 11 -15 8 -14 -4
-23 3 -35 28 -9 20 -13 24 -10 12 2 -13 0 -23 -5 -23 -5 0 -9 7 -9 16 0 10 -6
14 -15 10 -10 -4 -15 1 -15 14 0 11 -7 20 -15 20 -9 0 -20 11 -25 25 -7 18
-14 23 -26 18 -16 -6 -16 -7 1 -13 16 -6 16 -7 3 -13 -18 -6 -33 19 -18 28 16
10 11 21 -9 21 -11 0 -17 -5 -14 -13 8 -20 -4 -15 -32 12 -27 28 -31 26 -14
-8 l12 -22 -20 20 c-11 11 -19 22 -18 25 2 3 -3 11 -11 18 -14 13 -19 5 -15
-20 2 -13 -17 -9 -22 5 -2 7 -17 13 -32 15 -16 1 -33 5 -39 10 -10 6 -32 8
-46 2 -21 -8 -50 -8 -50 -1 0 5 -9 7 -20 4 -11 -3 -20 -10 -20 -15 0 -7 -5 -6
-14 1 -7 6 -29 10 -47 10 -19 -1 -56 1 -84 4 -35 5 -72 1 -124 -14z"/>
<path d="M4250 3840 c0 -11 2 -20 4 -20 2 0 6 9 9 20 3 11 1 20 -4 20 -5 0 -9
-9 -9 -20z"/>
<path d="M4270 3800 c0 -5 5 -10 10 -10 6 0 10 5 10 10 0 6 -4 10 -10 10 -5 0
-10 -4 -10 -10z"/>
<path d="M4325 3570 c3 -5 8 -10 11 -10 2 0 4 5 4 10 0 6 -5 10 -11 10 -5 0
-7 -4 -4 -10z"/>
</g>
</svg>
